<svg width="360.000000" height="360.000000" viewBox="0 0 360 360" fill="none" xmlns="http://www.w3.org/2000/svg" xmlns:xlink="http://www.w3.org/1999/xlink">
	<desc>
			Created with Pixso.
	</desc>
	<defs>
		<clipPath id="clip11_95">
			<rect id="photo -m" rx="15.000000" width="360.000000" height="360.000000" fill="white" fill-opacity="0"/>
		</clipPath>
	</defs>
	<rect id="photo -m" rx="15.000000" width="360.000000" height="360.000000" fill="#FFFFFF" fill-opacity="0"/>
	<g clip-path="url(#clip11_95)">
		<path id="矢量 7" d="M93.8378 271.922L266.162 271.922C287.08 271.922 297.439 261.562 297.439 241.042L297.439 119.419C297.439 98.8999 287.08 88.5405 266.162 88.5405L93.8378 88.5405C73.0195 88.5405 62.5605 98.8003 62.5605 119.419L62.5605 241.042C62.5605 261.662 73.0195 271.922 93.8378 271.922ZM228.012 179.981C223.529 175.998 218.35 173.906 212.971 173.906C207.492 173.906 202.612 175.798 198.029 179.882L153.006 220.125L134.578 203.39C130.394 199.705 125.813 197.713 121.13 197.713C116.648 197.713 112.465 199.605 108.281 203.291L78.5976 230.085L78.5976 120.217C78.5976 109.857 84.0762 104.578 94.0372 104.578L265.963 104.578C275.825 104.578 281.402 109.857 281.402 120.217L281.402 230.185L228.012 179.981ZM136.77 181.077C149.62 181.077 160.177 170.52 160.177 157.57C160.177 144.721 149.62 134.062 136.77 134.062C123.821 134.062 113.262 144.721 113.262 157.57C113.262 170.52 123.821 181.077 136.77 181.077Z" fill="#5B88E5" fill-opacity="1.000000" fill-rule="evenodd"/>
	</g>
</svg>
